HIERARCHY
ROOT Hips
{
	OFFSET 0.000000 0.000000 0.000000
	CHANNELS 6 Xposition Yposition Zposition Xrotation Yrotation Zrotation
	JOINT LeftUpLeg_virtual
	{
		OFFSET 0.000000 0.000000 0.000000
		CHANNELS 3 Xrotation Yrotation Zrotation
		JOINT LeftUpLeg
		{
			OFFSET 13.026900 -6.336304 -1.092800
			CHANNELS 3 Xrotation Yrotation Zrotation
			JOINT LeftLeg
			{
				OFFSET 0.524474 -46.096886 9.782700
				CHANNELS 3 Xrotation Yrotation Zrotation
				JOINT LeftFoot
				{
					OFFSET -0.524474 -53.427422 -12.948200
					CHANNELS 3 Xrotation Yrotation Zrotation
					JOINT LeftToeBase
					{
						OFFSET 0.192200 -14.009700 16.364100
						CHANNELS 3 Xrotation Yrotation Zrotation
						JOINT LeftToe_End
						{
							OFFSET -1.784700 -0.561700 9.474800
							CHANNELS 3 Xrotation Yrotation Zrotation
							End Site
							{
								OFFSET 0 0 0
							}
						}
					}
				}
			}
		}
	}
	JOINT RightUpLeg_virtual
	{
		OFFSET 0.000000 0.000000 0.000000
		CHANNELS 3 Xrotation Yrotation Zrotation
		JOINT RightUpLeg
		{
			OFFSET -12.883000 -6.336304 -1.092800
			CHANNELS 3 Xrotation Yrotation Zrotation
			JOINT RightLeg
			{
				OFFSET -0.524587 -46.096825 9.782800
				CHANNELS 3 Xrotation Yrotation Zrotation
				JOINT RightFoot
				{
					OFFSET 0.524587 -53.427383 -12.948300
					CHANNELS 3 Xrotation Yrotation Zrotation
					JOINT RightToeBase
					{
						OFFSET -0.192200 -14.009700 16.364100
						CHANNELS 3 Xrotation Yrotation Zrotation
						JOINT RightToe_End
						{
							OFFSET 1.784700 -0.561700 9.474800
							CHANNELS 3 Xrotation Yrotation Zrotation
							End Site
							{
								OFFSET 0 0 0
							}
						}
					}
				}
			}
		}
	}
	JOINT Spine_virtual
	{
		OFFSET 0.000000 0.000000 0.000000
		CHANNELS 3 Xrotation Yrotation Zrotation
		JOINT Spine
		{
			OFFSET 0.072000 7.257294 -0.789700
			CHANNELS 3 Xrotation Yrotation Zrotation
			JOINT Spine1
			{
				OFFSET 0.000000 12.508769 -0.658067
				CHANNELS 3 Xrotation Yrotation Zrotation
				JOINT Spine1_split
				{
					OFFSET 0.000000 12.508769 -0.658067
					CHANNELS 3 Xrotation Yrotation Zrotation
					JOINT Spine2
					{
						OFFSET 0.000000 12.508769 -0.658067
						CHANNELS 3 Xrotation Yrotation Zrotation
						JOINT Neck_virtual
						{
							OFFSET 0.000000 0.000000 0.000000
							CHANNELS 3 Xrotation Yrotation Zrotation
							JOINT Neck
							{
								OFFSET 0.000000 14.033295 7.520400
								CHANNELS 3 Xrotation Yrotation Zrotation
								JOINT Head
								{
									OFFSET 0.000000 8.198502 5.703100
									CHANNELS 3 Xrotation Yrotation Zrotation
									JOINT HeadTop_End
									{
										OFFSET 0.000000 17.760803 13.332701
										CHANNELS 3 Xrotation Yrotation Zrotation
										End Site
										{
											OFFSET 0 0 0
										}
									}
								}
							}
						}
						JOINT LeftShoulder_virtual
						{
							OFFSET 0.000000 0.000000 0.000000
							CHANNELS 3 Xrotation Yrotation Zrotation
							JOINT LeftShoulder
							{
								OFFSET 6.292450 5.785301 -0.669000
								CHANNELS 3 Xrotation Yrotation Zrotation
								JOINT LeftShoulder_split
								{
									OFFSET 6.292450 5.785301 -0.669000
									CHANNELS 3 Xrotation Yrotation Zrotation
									JOINT LeftArm
									{
										OFFSET 13.907140 -6.093903 1.965100
										CHANNELS 3 Xrotation Yrotation Zrotation
										JOINT LeftForeArm
										{
											OFFSET 34.140198 0.000000 0.000000
											CHANNELS 3 Xrotation Yrotation Zrotation
											JOINT LeftHand
											{
												OFFSET 40.960209 0.000000 0.000000
												CHANNELS 3 Xrotation Yrotation Zrotation
												End Site
												{
													OFFSET 0 0 0
												}
											}
										}
									}
								}
							}
						}
						JOINT RightShoulder_virtual
						{
							OFFSET 0.000000 0.000000 0.000000
							CHANNELS 3 Xrotation Yrotation Zrotation
							JOINT RightShoulder
							{
								OFFSET -6.292450 5.785301 -0.669000
								CHANNELS 3 Xrotation Yrotation Zrotation
								JOINT RightShoulder_split
								{
									OFFSET -6.292450 5.785301 -0.669000
									CHANNELS 3 Xrotation Yrotation Zrotation
									JOINT RightArm
									{
										OFFSET -13.907140 -6.093903 1.965100
										CHANNELS 3 Xrotation Yrotation Zrotation
										JOINT RightForeArm
										{
											OFFSET -34.140198 0.000000 0.000000
											CHANNELS 3 Xrotation Yrotation Zrotation
											JOINT RightHand
											{
												OFFSET -40.960209 0.000000 0.000000
												CHANNELS 3 Xrotation Yrotation Zrotation
												End Site
												{
													OFFSET 0 0 0
												}
											}
										}
									}
								}
							}
						}
					}
				}
			}
		}
	}
}
MOTION
Frames: 9
Frame Time: 0.03333333
1.275881 167.422409 21.049816 0.000000 0.000000 0.000000 5.830591 -39.839944 4.319287 -81.343154 -13.497272 18.596402 75.472095 0.693410 1.664606 4.695690 3.004302 -1.646866 -9.081413 0.928822 0.618482 0.000000 0.000000 0.000000 5.641003 -39.662089 3.603285 -114.558009 -29.984667 -6.186584 102.852793 10.294383 -10.124512 38.681263 4.121570 20.328993 6.944002 1.719231 -1.949571 0.000000 0.000000 0.000000 4.459483 -38.919948 2.113785 30.756960 -5.371342 -7.988759 12.108189 1.143387 -3.306424 0.457380 -0.471710 1.302552 0.000000 0.000000 0.000000 11.958731 1.327885 -2.444292 -7.456401 19.067795 -13.223527 -25.494830 12.055315 3.849746 0.000000 0.000000 0.000000 13.405484 1.511541 -2.860163 12.069411 -9.865127 -0.537888 0.253190 -2.306082 -5.310070 -53.650350 3.596984 2.654845 47.185682 -18.434708 30.828031 0.000000 0.000000 0.000000 13.880968 1.566428 -2.631499 17.580999 21.561328 -5.176058 1.633262 6.433203 3.061603 -34.871811 -16.097035 0.847899 -50.280735 47.750689 40.268333 0.000000 0.000000 0.000000 
1.270826 167.461945 21.069805 0.000000 0.000000 0.000000 5.820624 -39.659791 4.295357 -81.418116 -13.438920 18.634943 75.457717 0.727034 1.610875 4.856221 3.032340 -1.615356 -9.082344 0.934466 0.594474 0.000000 0.000000 0.000000 5.637046 -39.579911 3.580444 -114.622254 -29.956172 -6.122821 102.851625 10.314700 -10.200838 38.667992 4.211381 20.336868 6.961261 1.724040 -1.959029 0.000000 0.000000 0.000000 4.473220 -38.824547 2.065190 30.680759 -5.438279 -7.990662 12.142697 1.104359 -3.304943 0.451769 -0.477705 1.180973 0.000000 0.000000 0.000000 11.986544 1.312312 -2.446293 -7.576175 19.118618 -13.183342 -25.490889 12.009797 3.936731 0.000000 0.000000 0.000000 13.432602 1.488480 -2.806227 12.252641 -10.188912 0.283807 0.126202 -2.199056 -4.867628 -54.984628 2.814139 3.050808 47.228111 -18.667394 30.959922 0.000000 0.000000 0.000000 13.910593 1.516137 -2.624613 17.675415 21.264944 -5.647848 1.800183 6.507111 2.749638 -35.398780 -16.072036 0.549545 -50.388286 48.104992 40.303826 0.000000 0.000000 0.000000 
1.343611 167.487396 21.038338 0.000000 0.000000 0.000000 5.780769 -39.278929 4.175763 -81.604682 -13.456692 18.567333 75.449466 0.732987 1.600508 5.118627 2.972672 -1.447584 -9.059353 0.934166 0.593914 0.000000 0.000000 0.000000 5.597835 -39.276053 3.452478 -114.775564 -29.925408 -6.031703 102.932358 10.328426 -10.298602 38.805102 4.366954 20.436136 6.874223 1.718740 -1.934866 0.000000 0.000000 0.000000 4.534058 -38.606644 1.998176 30.585918 -5.518950 -8.040451 12.164700 1.067544 -3.322857 0.367780 -0.475065 1.136206 0.000000 0.000000 0.000000 12.047373 1.311911 -2.461334 -7.637991 19.106223 -13.104917 -25.597158 11.909604 4.066280 0.000000 0.000000 0.000000 13.469874 1.488053 -2.757286 12.547109 -10.657009 1.686267 0.329121 -1.797435 -4.704533 -56.563385 1.330119 3.803100 47.327398 -18.975179 31.080124 0.000000 0.000000 0.000000 13.932211 1.475870 -2.638939 17.973493 20.890492 -6.648658 1.943014 6.508931 2.739142 -36.422195 -16.228984 -0.110399 -51.255806 48.889804 41.189415 0.000000 0.000000 0.000000 
1.468389 167.491180 20.999207 0.000000 0.000000 0.000000 5.712627 -38.793893 3.975833 -81.886892 -13.557826 18.406842 75.463004 0.696567 1.640075 5.433172 2.829497 -1.188942 -9.021102 0.928104 0.615955 0.000000 0.000000 0.000000 5.526491 -38.842463 3.241685 -115.008829 -29.904365 -5.946526 103.110195 10.307274 -10.394718 39.026905 4.507580 20.586759 6.760991 1.703344 -1.875376 0.000000 0.000000 0.000000 4.627634 -38.316265 1.915254 30.481044 -5.599579 -8.126247 12.189489 1.039068 -3.350980 0.261206 -0.499969 1.144698 0.000000 0.000000 0.000000 12.155202 1.327216 -2.487699 -7.634893 19.040090 -13.006537 -25.755168 11.767409 4.206979 0.000000 0.000000 0.000000 13.520838 1.504472 -2.727872 12.932434 -11.240119 3.443491 0.675799 -1.356883 -4.845148 -58.049245 -0.571405 4.506514 47.387497 -19.094496 31.068082 0.000000 0.000000 0.000000 13.956962 1.456570 -2.670492 18.418315 20.525644 -8.009568 2.050252 6.474531 2.886530 -37.693236 -16.440498 -0.932485 -52.583045 49.844641 42.610552 0.000000 0.000000 0.000000 
1.612888 167.479248 20.955002 0.000000 0.000000 0.000000 5.631338 -38.276923 3.723676 -82.228156 -13.731554 18.185145 75.508923 0.625817 1.720705 5.753971 2.621187 -0.894491 -8.999466 0.920468 0.651595 0.000000 0.000000 0.000000 5.423545 -38.369465 2.985996 -115.330777 -29.884236 -5.900763 103.411557 10.230015 -10.450292 39.272830 4.573297 20.739432 6.757887 1.680635 -1.785412 0.000000 0.000000 0.000000 4.719364 -38.002616 1.808975 30.387430 -5.665026 -8.226980 12.235127 1.019081 -3.383908 0.174365 -0.564185 1.152094 0.000000 0.000000 0.000000 12.298635 1.346528 -2.516878 -7.567640 18.931259 -12.913211 -25.890356 11.602386 4.328031 0.000000 0.000000 0.000000 13.600354 1.523800 -2.721456 13.385164 -11.883176 5.344150 0.993321 -1.083597 -5.114401 -59.268413 -2.753819 4.847804 47.430623 -18.950227 30.980608 0.000000 0.000000 0.000000 13.997594 1.455888 -2.705599 18.938779 20.284253 -9.504183 2.095168 6.425167 3.016353 -39.005376 -16.470629 -1.715357 -53.997256 50.711771 44.160486 0.000000 0.000000 0.000000 
1.746534 167.477753 20.897808 0.000000 0.000000 0.000000 5.546454 -37.807020 3.448404 -82.604321 -13.953719 17.950121 75.611034 0.547238 1.816337 6.079445 2.386976 -0.617829 -8.978531 0.916711 0.680673 0.000000 0.000000 0.000000 5.308864 -37.965938 2.718802 -115.722898 -29.861143 -5.906402 103.833615 10.117507 -10.456862 39.535304 4.574127 20.889104 6.867638 1.657062 -1.679506 0.000000 0.000000 0.000000 4.785215 -37.750203 1.676701 30.325210 -5.703201 -8.322269 12.313332 1.002579 -3.415682 0.235898 -0.568849 1.175818 0.000000 0.000000 0.000000 12.448166 1.357051 -2.543745 -7.458685 18.818368 -12.837640 -25.975631 11.431521 4.422050 0.000000 0.000000 0.000000 13.712127 1.531052 -2.740288 13.858778 -12.539287 7.127325 1.150247 -1.096228 -5.453079 -60.171924 -4.901033 4.742198 47.497972 -18.620226 30.897641 0.000000 0.000000 0.000000 14.073900 1.463210 -2.746325 19.486707 20.250037 -10.964200 2.024252 6.355892 3.119070 -40.058110 -16.126130 -2.177019 -55.087252 51.316878 45.375863 0.000000 0.000000 0.000000 
1.839429 167.485413 20.849537 0.000000 0.000000 0.000000 5.453831 -37.479126 3.173435 -83.002221 -14.200649 17.745796 75.774870 0.486635 1.909047 6.425544 2.154277 -0.396309 -8.936922 0.920089 0.688259 0.000000 0.000000 0.000000 5.199873 -37.681751 2.457494 -116.139744 -29.838976 -5.938126 104.313087 10.021842 -10.444143 39.811137 4.576441 21.081124 6.967209 1.638997 -1.580721 0.000000 0.000000 0.000000 4.820680 -37.570132 1.523143 30.317625 -5.707339 -8.395121 12.432089 0.989416 -3.440413 0.374418 -0.508218 1.177440 0.000000 0.000000 0.000000 12.562393 1.352723 -2.569153 -7.341865 18.718791 -12.802185 -25.995430 11.269907 4.490256 0.000000 0.000000 0.000000 13.843970 1.518117 -2.781030 14.309005 -13.161214 8.622447 1.290791 -1.261845 -5.551369 -60.968010 -6.826621 4.191039 47.599383 -18.235089 30.876908 0.000000 0.000000 0.000000 14.194136 1.473461 -2.788861 20.003445 20.396839 -12.240574 1.910595 6.270517 3.160713 -40.737004 -15.214156 -2.191780 -55.671373 51.652875 46.023450 0.000000 0.000000 0.000000 
1.874913 167.498901 20.808990 0.000000 0.000000 0.000000 5.366582 -37.326615 2.932937 -83.395264 -14.455078 17.601076 75.995827 0.465196 1.987192 6.779788 1.943858 -0.248559 -8.871556 0.932764 0.668279 0.000000 0.000000 0.000000 5.093317 -37.529198 2.225363 -116.523874 -29.838337 -5.959071 104.749461 9.979683 -10.446035 40.072935 4.615571 21.324472 6.970573 1.631541 -1.510908 0.000000 0.000000 0.000000 4.800906 -37.487251 1.348615 30.392467 -5.693919 -8.439182 12.580194 0.970982 -3.459358 0.475693 -0.407417 1.173548 0.000000 0.000000 0.000000 12.623605 1.333525 -2.586370 -7.235523 18.648665 -12.802949 -25.932825 11.182702 4.554477 0.000000 0.000000 0.000000 13.973906 1.487475 -2.826632 14.690243 -13.714677 9.719043 1.315428 -1.453279 -5.419178 -61.709605 -8.439841 3.338438 47.747206 -17.971787 30.969017 0.000000 0.000000 0.000000 14.334417 1.473337 -2.823283 20.429791 20.688448 -13.239711 1.812659 6.219061 3.193562 -41.050687 -13.728207 -1.687519 -55.585562 51.692791 45.906709 0.000000 0.000000 0.000000 
1.859717 167.508331 20.799847 0.000000 0.000000 0.000000 5.278255 -37.349885 2.743852 -83.750892 -14.693687 17.535461 76.267149 0.484364 2.055680 7.109757 1.758595 -0.201015 -8.797092 0.951650 0.627589 0.000000 0.000000 0.000000 4.990831 -37.513854 2.034110 -116.808283 -29.887043 -5.954880 105.045038 9.983957 -10.459151 40.283807 4.651261 21.567265 6.919590 1.635170 -1.474476 0.000000 0.000000 0.000000 4.716212 -37.530189 1.161229 30.552041 -5.681534 -8.465264 12.750396 0.945205 -3.478492 0.521548 -0.305522 1.168618 0.000000 0.000000 0.000000 12.650893 1.305074 -2.602013 -7.141997 18.614523 -12.818506 -25.802955 11.151143 4.639910 0.000000 0.000000 0.000000 14.090654 1.444055 -2.871059 14.961953 -14.212492 10.337600 1.203318 -1.653649 -5.229442 -62.299754 -9.615140 2.375866 47.903313 -17.940334 31.131883 0.000000 0.000000 0.000000 14.460583 1.457414 -2.853170 20.731214 21.105484 -13.892170 1.733384 6.145691 3.199060 -41.111021 -11.814219 -0.694263 -54.774029 51.414816 44.967005 0.000000 0.000000 0.000000 
